<?xml version="1.0" standalone="no"?>
<!DOCTYPE svg PUBLIC "-//W3C//DTD SVG 20010904//EN"
 "http://www.w3.org/TR/2001/REC-SVG-20010904/DTD/svg10.dtd">
<svg version="1.0" xmlns="http://www.w3.org/2000/svg"
 width="797.000000pt" height="561.000000pt" viewBox="0 0 797.000000 561.000000"
 preserveAspectRatio="xMidYMid meet">

<g transform="translate(0.000000,561.000000) scale(0.100000,-0.100000)"
fill="#000000" stroke="none">
<path d="M2488 4036 c-19 -14 -38 -57 -38 -87 0 -30 44 -69 79 -69 17 0 42 11
59 25 l30 25 349 0 350 0 157 -165 158 -165 18 22 c18 22 17 23 -52 103 -39
44 -112 123 -163 175 l-92 95 -360 1 -359 1 -27 27 c-29 29 -80 35 -109 12z
m82 -41 c17 -20 5 -62 -20 -70 -44 -14 -80 41 -48 73 17 17 53 15 68 -3z"/>
<path d="M4251 3036 l-23 -25 163 -174 164 -175 362 -1 361 -1 30 -30 c39 -39
75 -39 113 -1 41 41 40 90 -2 125 -38 32 -69 33 -106 2 l-28 -24 -353 -3 -352
-4 -136 150 c-189 210 -166 190 -193 161z m1140 -306 c23 -13 26 -62 4 -80
-23 -19 -64 -4 -71 27 -5 20 -2 31 16 45 26 21 26 21 51 8z"/>
<path d="M5910 2005 l0 -285 25 0 25 0 0 285 0 285 -25 0 -25 0 0 -285z"/>
<path d="M4930 1996 c0 -259 1 -266 20 -266 18 0 20 7 20 89 l0 89 103 4 c162
6 212 46 212 171 0 131 -50 168 -237 175 l-118 4 0 -266z m258 205 c53 -28 79
-122 49 -181 -7 -13 -28 -35 -46 -47 -29 -20 -47 -23 -127 -23 l-94 0 0 128
c0 71 3 132 8 136 11 12 184 1 210 -13z"/>
<path d="M6181 2120 c-51 -12 -86 -52 -86 -99 0 -65 28 -83 183 -122 108 -26
109 -126 2 -144 -69 -12 -135 18 -153 68 -8 23 -37 22 -37 -2 0 -27 39 -71 76
-87 19 -8 56 -14 84 -14 91 0 150 41 150 103 0 61 -32 87 -145 117 -110 30
-136 51 -120 100 22 68 194 64 211 -5 8 -30 44 -35 44 -6 0 34 -46 78 -94 90
-50 12 -66 12 -115 1z"/>
<path d="M6636 2118 c-49 -14 -112 -76 -125 -125 -41 -146 46 -273 187 -273
65 0 107 17 150 60 36 38 39 45 16 54 -10 4 -23 -3 -36 -19 -62 -79 -200 -77
-257 4 -12 16 -24 43 -27 60 l-6 31 182 0 182 0 -6 38 c-12 66 -49 125 -93
150 -49 27 -114 35 -167 20z m152 -55 c34 -25 60 -61 68 -95 l6 -28 -161 0
c-117 0 -161 3 -161 12 0 6 9 31 21 54 38 79 158 109 227 57z"/>
<path d="M5402 1983 c3 -112 7 -146 23 -178 50 -100 176 -116 263 -32 l32 31
0 -37 c0 -26 4 -37 15 -37 13 0 15 28 15 195 0 188 -1 195 -20 195 -19 0 -20
-7 -20 -126 0 -143 -12 -183 -64 -215 -48 -29 -118 -26 -156 9 -40 35 -49 78
-50 220 0 107 -1 112 -21 112 -21 0 -21 -3 -17 -137z"/>
</g>
</svg>
