<?xml version="1.0" standalone="no"?>
<!DOCTYPE svg PUBLIC "-//W3C//DTD SVG 20010904//EN"
 "http://www.w3.org/TR/2001/REC-SVG-20010904/DTD/svg10.dtd">
<svg version="1.0" xmlns="http://www.w3.org/2000/svg"
 width="845.000000pt" height="601.000000pt" viewBox="0 0 845.000000 601.000000"
 preserveAspectRatio="xMidYMid meet">

<g transform="translate(0.000000,601.000000) scale(0.100000,-0.100000)"
fill="#000000" stroke="none">
<path d="M7 6003 c-4 -3 -7 -1356 -7 -3005 l0 -2998 4225 0 4225 0 -2 3002 -3
3003 -4216 3 c-2319 1 -4219 -1 -4222 -5z m4165 -2897 c28 -34 21 -42 -11 -12
-24 23 -35 27 -72 23 l-44 -4 46 -1 c34 -2 51 -8 68 -26 13 -14 20 -30 16 -36
-12 -20 23 -60 54 -60 25 0 60 -24 50 -34 -11 -11 -79 -17 -79 -7 0 6 -9 11
-20 11 -11 0 -22 6 -24 13 -2 6 -8 21 -12 32 -4 11 -8 29 -8 40 -1 17 -7 20
-39 18 -31 -2 -38 1 -33 12 4 10 -1 14 -16 12 -17 -1 -22 3 -21 21 0 12 1 23
2 25 1 2 29 1 63 -1 47 -4 66 -10 80 -26z m96 18 c19 -9 32 -23 32 -35 0 -10
5 -19 11 -19 6 0 9 -12 7 -27 -3 -26 -1 -28 35 -27 25 1 37 -3 37 -12 0 -8 9
-14 20 -14 14 0 20 -7 20 -24 0 -23 -2 -24 -62 -19 -48 4 -69 11 -88 29 -13
13 -20 24 -14 24 6 0 19 -9 29 -20 14 -16 29 -20 69 -18 l51 2 -50 3 c-58 5
-85 25 -85 63 0 39 -21 61 -60 63 -42 2 -55 33 -18 40 13 2 26 5 29 6 3 0 20
-6 37 -15z m-380 -251 c3 -17 -2 -23 -17 -23 -11 0 -22 -8 -24 -17 -3 -10 -5
1 -6 25 -1 40 1 43 22 40 14 -2 23 -11 25 -25z m172 -11 c0 -30 -4 -38 -19
-39 -11 -1 -25 5 -32 13 -13 15 -64 20 -54 4 3 -5 13 -6 23 -3 13 5 15 3 5 -7
-16 -18 -43 -5 -43 21 0 28 -23 19 -31 -12 -7 -22 -7 -22 -8 6 -1 29 1 31 41
32 24 1 46 -4 51 -10 7 -9 10 -9 14 1 2 6 13 12 24 12 10 0 19 5 19 10 0 6 2
10 5 10 3 0 5 -17 5 -38z m358 15 c2 -12 -4 -20 -17 -24 -11 -3 -22 -12 -24
-22 -3 -9 -5 3 -6 27 -1 39 1 43 21 40 13 -2 24 -11 26 -21z m89 -39 c-2 -13
-4 -3 -4 22 0 25 2 35 4 23 2 -13 2 -33 0 -45z m-314 27 c-3 -9 0 -22 7 -30
10 -12 9 -15 -4 -15 -8 0 -18 10 -21 23 -5 17 -13 23 -32 22 -15 0 -28 -5 -30
-12 -6 -17 16 -26 32 -13 11 9 15 9 15 1 0 -19 -31 -25 -47 -8 -23 22 -9 50
21 45 14 -3 30 -1 37 3 18 10 29 2 22 -16z m-106 -32 c-3 -10 -5 -2 -5 17 0
19 2 27 5 18 2 -10 2 -26 0 -35z m140 0 c-3 -10 -5 -2 -5 17 0 19 2 27 5 18 2
-10 2 -26 0 -35z m46 28 c3 13 9 21 12 17 3 -3 0 -18 -7 -33 -11 -25 -13 -25
-25 -9 -7 10 -13 25 -13 33 1 11 5 8 14 -8 l13 -23 6 23z m75 2 c2 -8 -5 -13
-17 -13 -12 0 -21 -5 -21 -11 0 -6 9 -8 21 -4 15 5 19 4 15 -4 -17 -27 -62 2
-50 33 7 19 45 18 52 -1z m107 -24 c6 0 13 10 17 23 5 20 6 19 7 -8 1 -26 -3
-31 -21 -30 -18 1 -23 8 -25 31 -2 25 -1 26 5 7 4 -13 12 -23 17 -23z m111 29
c5 -8 2 -9 -10 -5 -10 4 -15 3 -11 -3 3 -6 -1 -10 -9 -10 -17 0 -21 12 -9 23
10 11 31 8 39 -5z m68 -3 c4 -11 -2 -15 -20 -15 -14 0 -23 -4 -19 -10 3 -5 13
-6 22 -3 11 4 14 3 9 -5 -10 -17 -36 -15 -42 3 -9 23 3 45 25 45 10 0 21 -7
25 -15z m-64 -25 c0 -17 -30 -24 -43 -10 -10 10 -8 12 6 7 9 -4 17 -2 17 3 0
6 5 10 10 10 6 0 10 -5 10 -10z"/>
<path d="M4080 3086 c0 -2 15 -6 34 -8 19 -2 32 0 30 4 -5 8 -64 12 -64 4z"/>
<path d="M4323 2993 c9 -2 25 -2 35 0 9 3 1 5 -18 5 -19 0 -27 -2 -17 -5z"/>
<path d="M3850 2876 c0 -9 7 -16 16 -16 9 0 14 5 12 12 -6 18 -28 21 -28 4z"/>
<path d="M3958 2863 c7 -3 16 -2 19 1 4 3 -2 6 -13 5 -11 0 -14 -3 -6 -6z"/>
<path d="M4020 2849 c0 -24 23 -21 28 4 2 10 -3 17 -12 17 -10 0 -16 -9 -16
-21z"/>
<path d="M4380 2876 c0 -9 7 -16 16 -16 17 0 14 22 -4 28 -7 2 -12 -3 -12 -12z"/>
<path d="M4318 2863 c7 -3 16 -2 19 1 4 3 -2 6 -13 5 -11 0 -14 -3 -6 -6z"/>
<path d="M4598 2863 c7 -3 16 -2 19 1 4 3 -2 6 -13 5 -11 0 -14 -3 -6 -6z"/>
</g>
</svg>
