<?xml version="1.0" standalone="no"?>
<!DOCTYPE svg PUBLIC "-//W3C//DTD SVG 20010904//EN"
 "http://www.w3.org/TR/2001/REC-SVG-20010904/DTD/svg10.dtd">
<svg version="1.0" xmlns="http://www.w3.org/2000/svg"
 width="622.000000pt" height="247.000000pt" viewBox="0 0 622.000000 247.000000"
 preserveAspectRatio="xMidYMid meet">

<g transform="translate(0.000000,247.000000) scale(0.100000,-0.100000)"
fill="#000000" stroke="none">
<path d="M1569 2447 c-24 -18 -39 -52 -39 -87 0 -73 99 -108 153 -54 l26 25
363 0 363 -1 171 -176 170 -176 18 26 17 27 -73 86 c-40 47 -115 130 -166 184
l-94 99 -379 0 -378 0 -31 30 c-33 33 -90 41 -121 17z m79 -39 c20 -20 15 -66
-9 -78 -16 -9 -26 -8 -45 5 -30 19 -31 49 -2 69 27 19 40 20 56 4z"/>
<path d="M3424 1397 l-27 -23 34 -40 c19 -21 96 -105 173 -186 l139 -148 380
0 381 0 26 -32 c23 -27 34 -33 69 -33 52 0 81 27 88 83 5 36 2 45 -25 72 -39
39 -92 42 -125 7 l-22 -24 -365 -6 c-201 -3 -370 -3 -376 1 -6 4 -81 84 -167
179 l-157 172 -26 -22z m1217 -348 c17 -33 -3 -69 -39 -69 -33 0 -52 16 -52
45 0 29 19 45 52 45 18 0 31 -7 39 -21z"/>
<path d="M5170 310 l0 -290 25 0 25 0 0 290 0 290 -25 0 -25 0 0 -290z"/>
<path d="M4140 295 c0 -267 1 -275 20 -275 18 0 20 8 22 93 l3 92 110 5 c123
6 159 19 197 72 19 28 23 45 23 108 0 63 -4 80 -24 109 -40 56 -87 71 -228 71
l-123 0 0 -275z m259 217 c51 -26 74 -63 75 -121 1 -58 -22 -97 -75 -124 -27
-13 -54 -17 -124 -15 l-90 3 -3 124 c-1 69 0 131 2 138 8 21 172 17 215 -5z"/>
<path d="M5465 431 c-69 -17 -105 -54 -105 -106 0 -62 42 -94 161 -121 117
-27 159 -86 95 -136 -64 -51 -216 -13 -216 54 0 13 -7 18 -25 18 -23 0 -25 -3
-19 -27 18 -73 73 -106 174 -106 78 0 123 20 146 64 34 67 -9 134 -102 158
-153 40 -184 62 -164 115 11 29 62 56 105 56 43 0 94 -27 113 -60 18 -32 52
-41 52 -14 0 28 -33 73 -65 88 -39 18 -112 27 -150 17z"/>
<path d="M5935 425 c-141 -38 -194 -236 -93 -351 45 -51 82 -67 159 -67 79 0
143 31 178 85 l20 33 -20 3 c-14 2 -34 -9 -58 -31 -91 -88 -236 -58 -275 58
l-14 40 189 3 189 2 0 28 c0 73 -49 156 -109 186 -42 21 -112 26 -166 11z
m110 -36 c46 -12 115 -74 115 -103 0 -8 3 -21 6 -30 5 -14 -13 -16 -160 -16
-161 0 -166 1 -166 20 0 50 46 104 107 126 47 16 45 16 98 3z"/>
<path d="M4640 283 c0 -164 14 -215 64 -248 66 -44 172 -36 222 16 35 37 44
37 44 -1 0 -20 5 -30 15 -30 13 0 15 29 15 205 0 196 -1 205 -19 205 -18 0
-20 -10 -23 -144 -3 -156 -9 -173 -70 -219 -31 -23 -109 -25 -143 -3 -53 35
-60 59 -63 218 -4 138 -5 148 -23 148 -18 0 -19 -9 -19 -147z"/>
</g>
</svg>
